<svg width="48" height="24" viewBox="0 0 48 24" fill="none" xmlns="http://www.w3.org/2000/svg">
<path d="M19.8562 20.2838C12.3288 22.281 0.171157 20.2399 0.0631703 11.3449C-0.0448159 2.44983 12.9304 7.74852 12.9304 7.74852L19.8562 20.2838Z" fill="#FFC250"/>
<path d="M3.72302 6.35426C8.9765 5.58608 12.9664 11.5265 17.3808 17.7232C21.7952 23.92 33.2901 26.3762 40.6349 21.165C47.9797 15.9539 51.0882 6.82713 42.0701 1.38317C33.0519 -4.06079 27.4224 8.29872 19.6587 8.63845C11.8952 8.97819 11.8385 4.05367 3.72302 6.35426Z" fill="#FFD064"/>
<ellipse cx="41.3092" cy="11.6219" rx="2.3056" ry="1.96745" fill="#FFE19D"/>
<ellipse cx="36.8902" cy="13.0974" rx="1.7292" ry="1.47559" fill="#FFE19D"/>
<ellipse cx="39.9643" cy="15.0648" rx="1.34493" ry="1.14768" fill="#FFE19D"/>
</svg>
